<svg height="512pt" viewBox="-55 0 512 512.00096" width="512pt" xmlns="http://www.w3.org/2000/svg"><path d="m298.300781 157.867188v243.199218l-48.300781 102.398438h-224.765625c-9.414063-.027344-17.039063-7.652344-17.066406-17.066406v-328.53125c.046875-11.761719 9.570312-21.285157 21.332031-21.332032 5.5.03125 10.996094-.222656 16.46875-.769531 7.429688-.394531 14.707031-2.25 21.417969-5.460937 5.757812-2.78125 9.3125-8.71875 9.046875-15.105469v-21.332031h153.601562v21.332031c0 21.335937 35.15625 21.335937 46.933594 21.335937 5.660156-.019531 11.097656 2.222656 15.101562 6.226563 4.007813 4.003906 6.25 9.441406 6.230469 15.105469zm0 0" fill="#558b30"/><path d="m272.699219 166.398438v243.203124l-44.285157 93.863282h-203.179687c-9.414063-.027344-17.039063-7.652344-17.066406-17.066406v-328.53125c-.019531-4.699219 1.542969-9.269532 4.4375-12.972657 10.054687.175781 20.027343-1.894531 29.183593-6.058593 1.519532-.839844 2.921876-1.871094 4.179688-3.070313 7.429688-.394531 14.707031-2.25 21.417969-5.460937 5.757812-2.78125 9.3125-8.71875 9.046875-15.105469v-12.800781h128v21.335937c0 21.332031 35.15625 21.332031 46.933594 21.332031 5.664062-.019531 11.101562 2.222656 15.105468 6.230469 4.003906 4.003906 6.246094 9.441406 6.226563 15.101563zm0 0" fill="#8bc34a"/><path d="m67.898438 8.535156h170.667968c9.425782 0 17.066406 7.640625 17.066406 17.066406v51.199219c0 9.425781-7.640624 17.066407-17.066406 17.066407h-170.667968c-9.425782 0-17.066407-7.640626-17.066407-17.066407v-51.199219c0-9.425781 7.640625-17.066406 17.066407-17.066406zm0 0" fill="#4e342e"/><path d="m67.898438 8.535156h145.070312c9.421875 0 17.066406 7.640625 17.066406 17.066406v51.199219c0 9.425781-7.644531 17.066407-17.066406 17.066407h-145.070312c-9.425782 0-17.066407-7.640626-17.066407-17.066407v-51.199219c0-9.425781 7.640625-17.066406 17.066407-17.066406zm0 0" fill="#795548"/><path d="m8.167969 204.800781h290.132812v187.734375h-290.132812zm0 0" fill="#9e9e9e"/><path d="m8.167969 204.800781h264.53125v187.734375h-264.53125zm0 0" fill="#cfd8dc"/><path d="m178.832031 332.800781c-21.332031 17.066407-37.375 19.710938-49.320312 14.164063-31.402344-14.675782-35.414063-85.929688-35.925781-103.933594-.085938-2.648438-.085938-4.097656-.085938-4.097656 187.734375 25.601562 85.332031 93.867187 85.332031 93.867187zm0 0" fill="#2e7d32"/><path d="m153.234375 332.800781c-7.097656 5.964844-15.105469 10.746094-23.722656 14.164063-31.402344-14.675782-35.414063-85.929688-35.925781-103.933594 152.234374 28.074219 59.648437 89.769531 59.648437 89.769531zm0 0" fill="#4caf50"/><path d="m392.167969 477.867188c0 14.136718-11.460938 25.597656-25.601563 25.597656h-34.132812v-51.199219h34.132812c14.140625 0 25.601563 11.460937 25.601563 25.601563zm0 0" fill="#2e7d32"/><path d="m332.433594 452.265625v51.199219h-34.132813c-3.226562.039062-6.425781-.597656-9.386719-1.875h-.085937c-6.007813-2.335938-10.894531-6.886719-13.652344-12.714844l36.605469-36.609375zm0 0" fill="#9e9e9e"/><path d="m323.898438 429.566406c-.003907 6.789063-2.707032 13.296875-7.507813 18.09375l-4.609375 4.605469-4.949219 4.949219-14.589843 14.59375-36.183594-36.183594 24.152344-24.148438c1.5625-1.582031 3.34375-2.929687 5.289062-4.011718 7.910156-4.566406 17.652344-4.570313 25.570312-.015625 7.917969 4.554687 12.804688 12.984375 12.828126 22.117187zm0 0" fill="#2e7d32"/><path d="m306.832031 452.265625h4.949219l-4.949219 4.949219zm0 0" fill="#2e7d32"/><path d="m366.566406 477.867188c0 14.136718-11.460937 25.597656-25.597656 25.597656h-8.535156v-51.199219h8.535156c14.136719 0 25.597656 11.460937 25.597656 25.601563zm0 0" fill="#4caf50"/><path d="m306.40625 435.199219c-.035156 7.925781-3.292969 15.496093-9.027344 20.96875l-5.539062 5.332031-8.097656 7.832031-28.109376-27.09375 29.015626-27.988281c1.890624-1.84375 4.039062-3.410156 6.371093-4.648438 2.332031 1.238282 4.472657 2.804688 6.359375 4.648438 5.730469 5.464844 8.992188 13.03125 9.027344 20.949219zm0 0" fill="#4caf50"/><path d="m292.242188 471.808594-24.148438 24.148437c-6.382812 6.847657-15.996094 9.667969-25.066406 7.351563-9.070313-2.316406-16.152344-9.398438-18.46875-18.46875-2.316406-9.070313.503906-18.683594 7.351562-25.0625l24.148438-24.152344zm0 0" fill="#cfd8dc"/><path d="m63.632812 122.828125c-10.726562 4.222656-22.265624 5.988281-33.765624 5.171875-16.496094 0-29.867188 13.371094-29.867188 29.867188v328.53125c0 14.140624 11.460938 25.601562 25.601562 25.601562h224.792969c9.054688.023438 17.746094-3.578125 24.132813-10l.058594-.0625c3.167968 3.183594 6.941406 5.699219 11.09375 7.398438l.253906.128906.164062.085937c.136719.050781.265625.101563.410156.144531 3.855469 1.554688 7.976563 2.335938 12.132813 2.304688h68.269531c18.847656 0 34.132813-15.28125 34.132813-34.132812 0-18.851563-15.285157-34.132813-34.132813-34.132813h-37.300781c6.894531-15 2.042969-32.785156-11.515625-42.203125-13.554688-9.421875-31.914062-7.765625-43.566406 3.929688l-24.125 24.125-24.125 24.132812c-11.011719 10.894531-13.199219 27.886719-5.296875 41.214844h-195.414063c-4.710937 0-8.535156-3.820313-8.535156-8.535156v-85.332032h238.933594c4.714844 0 8.535156-3.820312 8.535156-8.53125 0-4.714844-3.820312-8.535156-8.535156-8.535156h-238.933594v-170.667969h273.070312v153.601563c0 4.710937 3.820313 8.53125 8.53125 8.53125 4.714844 0 8.535157-3.820313 8.535157-8.53125v-209.066406c.015625-7.925782-3.128907-15.53125-8.730469-21.136719-5.605469-5.605469-13.210938-8.746094-21.136719-8.730469-31.746093 0-38.402343-6.964844-38.402343-12.800781v-12.800781c14.140624 0 25.601562-11.460938 25.601562-25.597657v-51.199219c0-14.140624-11.460938-25.601562-25.601562-25.601562h-170.664063c-14.140625 0-25.601563 11.460938-25.601563 25.601562v51.199219c0 14.136719 11.460938 25.597657 25.601563 25.597657v12.800781c.28125 3.273437-1.578125 6.351562-4.601563 7.628906zm229.09375 370.953125c-.296874-.128906-.601562-.242188-.910156-.332031-1.945312-.835938-3.714844-2.03125-5.214844-3.523438l29.125-29.125h8.53125v34.132813h-25.597656c-2.039062.035156-4.058594-.355469-5.933594-1.152344zm91.273438-15.914062c-.027344 9.414062-7.652344 17.039062-17.066406 17.066406h-25.601563v-34.132813h25.601563c9.425781 0 17.066406 7.640625 17.066406 17.066407zm-97.40625-60.339844c6.664062-6.667969 17.46875-6.667969 24.136719-.003906 6.664062 6.664062 6.667969 17.46875.003906 24.136718l-4.457031 4.453125-.289063.289063-13.355469 13.363281-24.140624-24.140625zm-48.265625 48.273437 18.097656-18.109375 24.140625 24.140625-11.28125 11.238281c-.058594.070313-.136718.128907-.195312.199219l-6.664063 6.664063c-6.75 6.449218-17.378906 6.449218-24.132812 0-6.660157-6.664063-6.660157-17.46875 0-24.132813zm-178.59375-389v-51.199219c0-4.714843 3.820313-8.535156 8.53125-8.535156h8.535156v25.601563c0 4.710937 3.820313 8.53125 8.53125 8.53125 4.714844 0 8.535157-3.820313 8.535157-8.53125v-25.601563h17.066406v25.601563c0 4.710937 3.820312 8.53125 8.535156 8.53125 4.710938 0 8.53125-3.820313 8.53125-8.53125v-25.601563h17.066406v25.601563c0 4.710937 3.820313 8.53125 8.535156 8.53125 4.710938 0 8.53125-3.820313 8.53125-8.53125v-25.601563h17.066407v25.601563c0 4.710937 3.820312 8.53125 8.535156 8.53125 4.710937 0 8.53125-3.820313 8.53125-8.53125v-25.601563h17.066406v25.601563c0 4.710937 3.824219 8.53125 8.535157 8.53125 4.710937 0 8.535156-3.820313 8.535156-8.53125v-25.601563h8.53125c4.714844 0 8.535156 3.820313 8.535156 8.535156v51.199219c0 4.710938-3.820312 8.53125-8.535156 8.53125h-170.667969c-4.710937 0-8.53125-3.820312-8.53125-8.53125zm12.160156 60.960938c8.449219-4.304688 13.675781-13.082031 13.4375-22.5625v-12.800781h136.535157v12.800781c0 29.867187 41.753906 29.867187 55.464843 29.867187 3.402344-.011718 6.664063 1.332032 9.066407 3.734375 2.40625 2.402344 3.75 5.667969 3.734374 9.066407v38.398437h-273.066406v-38.398437c0-7.070313 5.730469-12.800782 12.800782-12.800782 14.394531 1.003906 28.816406-1.503906 42.027343-7.304687zm0 0"/><path d="m214.785156 285.507812c-6.195312-26.878906-45.371094-44.886718-119.765625-55.03125-.164062 0-.316406.050782-.476562 0-.695313-.03125-1.386719.023438-2.066407.164063-.453124.039063-.902343.117187-1.339843.238281-.738281.277344-1.429688.664063-2.058594 1.140625-.292969.132813-.578125.285157-.851563.453125l-.085937.101563c-.730469.695312-1.335937 1.507812-1.792969 2.40625-.074218.15625-.21875.257812-.289062.410156v.042969c-.476563 1.074218-.71875 2.238281-.714844 3.414062v.070313c0 9.828125 1.140625 96.613281 40.539062 115.546875 5.03125 2.433594 10.550782 3.6875 16.136719 3.660156 12.050781-.632812 23.644531-4.804688 33.339844-11.988281 1.585937 4.570312 2.925781 9.21875 4.019531 13.925781.8125 3.972656 4.300782 6.824219 8.355469 6.828125.574219 0 1.144531-.058594 1.707031-.179687 4.609375-.929688 7.597656-5.414063 6.679688-10.027344-1.597656-7.222656-3.695313-14.328125-6.28125-21.265625 10.328125-8.371094 30.039062-27.773438 24.945312-49.910157zm-81.511718 53.597657c-21.246094-10.238281-28.570313-57.171875-30.371094-86.015625 29.59375 17.933594 52.71875 44.808594 66.042968 76.742187-14.558593 10.476563-26.558593 13.652344-35.671874 9.273438zm2.074218-84.085938c49.273438 11.390625 60.816406 25.734375 62.796875 34.292969 2.40625 10.371094-6.722656 21.796875-15.179687 29.542969-11.074219-24.476563-27.332032-46.257813-47.652344-63.835938zm0 0"/><path d="m42.667969 460.800781c-4.714844 0-8.535157 3.820313-8.535157 8.53125 0 4.714844 3.820313 8.535157 8.535157 8.535157h64c4.710937 0 8.53125-3.820313 8.53125-8.535157 0-4.710937-3.820313-8.53125-8.53125-8.53125zm0 0"/><path d="m119.46875 145.066406h64c4.710938 0 8.53125-3.820312 8.53125-8.53125 0-4.714844-3.820312-8.535156-8.53125-8.535156h-64c-4.714844 0-8.535156 3.820312-8.535156 8.535156 0 4.710938 3.820312 8.53125 8.535156 8.53125zm0 0"/></svg>